<?xml version="1.0" encoding="utf-8"?>
<!-- Generator: Adobe Illustrator 27.5.0, SVG Export Plug-In . SVG Version: 6.00 Build 0)  -->
<svg version="1.1" id="Layer_1" xmlns="http://www.w3.org/2000/svg" xmlns:xlink="http://www.w3.org/1999/xlink" x="0px" y="0px"
	 viewBox="0 0 278.287 400" style="enable-background:new 0 0 278.287 400;" xml:space="preserve">
<g>
	<g>
		<g>
			<path style="fill:#C28890;" d="M109.403,270.72c0,0,28.689-12.314,59.211-0.262c0,0,15.589,13.755,8.515,45.063
				c-7.074,31.309-73.49,12.314-74.407-1.834S98.137,286.309,109.403,270.72z"/>
			<path style="fill:#C28890;" d="M109.403,270.72c0,0,28.689-12.314,59.211-0.262c0,0,15.589,13.755,8.515,45.063
				c-7.074,31.309-73.49,12.314-74.407-1.834S98.137,286.309,109.403,270.72z"/>
			<path style="fill:#C28890;" d="M109.403,270.72c0,0,28.689-12.314,59.211-0.262c0,0,15.589,13.755,8.515,45.063
				c-7.074,31.309-73.49,12.314-74.407-1.834S98.137,286.309,109.403,270.72z"/>
		</g>
		<g>
			<g>
				<path style="fill:#D3926E;" d="M165.758,243.92c-2.566,12.345-3.371,26.494,0.612,38.586
					c2.478,7.521,6.893,12.987,14.335,15.837c8.023,3.073,16.713,4.62,25.018,6.935c15.331,4.273,30.76,8.514,44.066,17.564
					c9.501,6.462,17.287,15.211,21.541,25.97c0,0-53.285,41.189-134.758,41.189C55.1,390,6.957,348.811,6.957,348.811
					c4.254-10.76,12.04-19.509,21.541-25.97c13.307-9.05,28.735-13.291,44.066-17.564c8.305-2.315,16.995-3.862,25.018-6.935
					c7.442-2.85,11.857-8.315,14.335-15.837c3.983-12.092,3.178-26.241,0.612-38.586H165.758z"/>
			</g>
			<path style="opacity:0.6;fill:#D3926E;" d="M139.894,270.891c3.937-0.422,7.549-2.186,11.164-3.544
				c4.142-1.556,8.391-3.326,12.566-5.337c0.121-6.162,0.936-12.323,2.134-18.091H112.53c1.25,6.014,2.08,12.457,2.144,18.882
				c4.32,2.055,8.769,3.887,13.295,5.512C131.82,269.696,135.653,271.346,139.894,270.891z"/>
			<g>
				<path style="fill:#821522;" d="M249.789,322.841c-13.307-9.05-28.735-13.291-44.066-17.564
					c-8.305-2.315-16.995-3.862-25.018-6.935c-0.607-0.232-1.187-0.489-1.755-0.756c-1.627,3.114-3.257,6.227-5.005,9.274
					c-2.323,4.047-4.754,8.068-7.571,11.795c-2.584,3.417-5.477,6.629-8.782,9.365c-3.186,2.638-6.778,4.847-10.738,6.105
					c-3.993,1.268-8.252,1.451-12.334,0.497c-2.151-0.503-4.252-1.271-6.188-2.338c-1.955-1.077-3.754-2.425-5.423-3.902
					c-3.439-3.042-6.345-6.635-9.1-10.292c-1.484-1.97-2.947-3.958-4.307-6.017c-1.495-2.262-2.977-4.617-4.118-7.082
					c-0.914-1.977-1.853-3.959-2.662-5.982c-0.352-0.881-0.693-1.806-0.943-2.75c-1.28,0.799-2.672,1.499-4.197,2.083
					c-8.023,3.073-16.713,4.62-25.018,6.935c-15.331,4.273-30.759,8.514-44.066,17.564c-9.501,6.462-17.287,15.211-21.541,25.97
					c0,0,48.143,41.189,129.615,41.189c81.473,0,134.758-41.189,134.758-41.189C267.076,338.051,259.29,329.302,249.789,322.841z"/>
			</g>
			<path style="opacity:0.4;fill:#821522;" d="M265.39,337.916c-0.114-0.16-0.226-0.323-0.341-0.482
				c-0.923,0.828-1.858,1.643-2.807,2.441c-3.231,2.716-6.607,5.257-10.1,7.626c-5.272,3.575-10.812,6.746-16.534,9.545
				c-0.145-2.745-0.179-5.496-0.099-8.249c0.161-5.512,0.771-11.011,1.822-16.425c4.281-2.927,8.316-6.198,12.025-9.819
				c-0.174-0.116-0.347-0.232-0.521-0.347c-3.506,3.424-7.311,6.537-11.338,9.345c0.594-2.93,1.315-5.834,2.167-8.7
				c0.503-1.692,1.052-3.37,1.644-5.033c-0.207-0.107-0.413-0.215-0.62-0.32c-0.44,1.243-0.858,2.491-1.253,3.74
				c-1.132,3.577-2.057,7.22-2.779,10.902c-4.82,3.284-9.942,6.141-15.235,8.584c-3.069,1.417-6.193,2.703-9.36,3.878
				c0.548-8.529,1.55-17.029,3.004-25.452c0.614-3.558,1.34-7.087,2.117-10.605c-0.248-0.074-0.497-0.147-0.745-0.221
				c-0.659,2.993-1.244,6.003-1.789,9.01c-0.983,5.43-1.774,10.893-2.372,16.378c-0.404,3.708-0.715,7.428-0.946,11.152
				c-12.141,4.428-24.901,7.219-37.65,9.218c0-0.003,0-0.006,0.001-0.009c0.379-6.343,1.089-12.667,2.121-18.937
				c1.031-6.264,2.38-12.477,4.048-18.602c1.531-5.623,3.336-11.169,5.396-16.621c-0.214-0.067-0.427-0.138-0.641-0.207
				c-0.694,1.808-1.34,3.636-1.969,5.462c-1.043,3.029-2.006,6.085-2.887,9.164c-1.747,6.103-3.177,12.296-4.278,18.548
				c-1.101,6.247-1.877,12.549-2.333,18.876c-0.058,0.811-0.111,1.622-0.158,2.434c-0.916,0.142-1.831,0.281-2.747,0.415
				c-11.107,1.625-22.335,2.568-33.564,2.641c-0.185-7.455-0.459-14.907-0.807-22.356c-0.263-0.045-0.526-0.095-0.788-0.15
				c0.096,2.007,0.188,4.014,0.272,6.021c0.229,5.494,0.411,10.99,0.553,16.486c-6.617,0.019-13.235-0.262-19.827-0.891
				c-6.292-0.6-12.552-1.522-18.741-2.78c0.012-0.312,0.026-0.623,0.038-0.935c0.501-13.202,0.694-26.415,0.571-39.626
				c-0.034-3.706-0.092-7.413-0.176-11.118c-0.027-1.198-0.051-2.399-0.078-3.599c-0.036,0.014-0.069,0.03-0.105,0.043
				c-0.227,0.087-0.456,0.168-0.683,0.253c0.022,0.74,0.044,1.48,0.061,2.219c0.076,3.336,0.137,6.671,0.177,10.007
				c0.079,6.604,0.078,13.21,0.008,19.814c-0.081,7.597-0.268,15.194-0.551,22.786c-9.384-1.952-18.596-4.688-27.499-8.28
				c0.293-8.592,0.06-17.211-1.092-25.735c-0.554-4.103-1.323-8.179-2.358-12.187c-0.182,0.052-0.363,0.104-0.545,0.156
				c2.024,8.53,3.081,17.245,3.343,26.023c0.114,3.823,0.09,7.646-0.038,11.467c-0.114-0.047-0.229-0.09-0.342-0.137
				c-8.896-3.666-17.431-8.191-25.405-13.555c-0.103-1.233-0.215-2.466-0.346-3.697c-0.408-3.842-0.976-7.655-1.668-11.453
				c-0.155,0.072-0.311,0.142-0.466,0.215c0.8,4.795,1.398,9.627,1.799,14.473c-4.08-2.78-8.011-5.78-11.764-9.001
				c-0.172,0.11-0.345,0.219-0.517,0.331c3.904,3.438,8.037,6.62,12.352,9.538c0.175,2.25,0.311,4.503,0.398,6.757
				c0.237,6.09,0.142,12.193-0.285,18.272c-10.152-4.833-19.761-10.781-28.442-17.959c-0.283-0.234-0.559-0.475-0.84-0.711
				c-0.113,0.16-0.223,0.323-0.335,0.484c8.886,7.637,18.951,13.876,29.563,18.881c-0.137,1.835-0.299,3.669-0.497,5.498
				c-0.231,2.14-0.509,4.273-0.823,6.401c0.218,0.102,0.435,0.203,0.655,0.305c0.582-3.949,1.019-7.921,1.316-11.902
				c3.54,1.649,7.136,3.171,10.771,4.553c4.352,1.655,8.768,3.116,13.231,4.412c-0.262,2.431-0.539,4.861-0.831,7.289
				c-0.2,1.66-0.431,3.321-0.642,4.983c0.249,0.081,0.502,0.16,0.751,0.241c0.182-1.482,0.342-2.967,0.52-4.445
				c0.315-2.619,0.617-5.24,0.899-7.863c9.24,2.643,18.685,4.564,28.207,5.93c-0.263,4.524-0.557,9.046-0.863,13.568
				c0.176,0.032,0.355,0.062,0.532,0.094c0.388-4.518,0.727-9.04,1.017-13.566c4.635,0.652,9.287,1.176,13.942,1.586
				c8.597,0.758,17.257,1.224,25.925,1.369c0.011,1.285,0.022,2.571,0.029,3.856c0.018,3.46,0.001,6.921-0.015,10.381
				c0.114,0,0.226,0.003,0.34,0.003c0.126,0,0.249-0.003,0.375-0.003c0.023-2.805,0.025-5.609,0.025-8.412
				c0-1.938-0.008-3.876-0.02-5.814c11.096,0.162,22.203-0.204,33.211-1.172c0.921-0.081,1.842-0.171,2.763-0.263
				c0.229,4.256,0.62,8.498,1.174,12.725c0.171-0.027,0.343-0.054,0.513-0.081c-0.455-4.225-0.837-8.455-1.048-12.704
				c12.657-1.285,25.245-3.547,37.444-7.143c0.125,3.651,0.318,7.307,0.633,10.951c0.187-0.061,0.378-0.12,0.564-0.181
				c-0.215-3.113-0.4-6.228-0.505-9.349c-0.018-0.537-0.026-1.074-0.041-1.611c4.749-1.42,9.44-3.04,14.049-4.892
				c3.126-1.256,6.212-2.617,9.25-4.079c0.051,0.796,0.109,1.592,0.18,2.387c0.247,2.773,0.614,5.535,1.101,8.276
				c0.197-0.088,0.395-0.176,0.591-0.264c-0.578-3.556-0.977-7.139-1.188-10.734C246.378,352.403,256.478,345.866,265.39,337.916z
				 M66.932,365.015c-0.033,0.314-0.069,0.627-0.103,0.94c-2.486-0.726-4.958-1.501-7.412-2.338
				c-5.651-1.926-11.204-4.161-16.609-6.703c0.113-1.608,0.21-3.217,0.278-4.827c0.281-6.687,0.159-13.389-0.362-20.06
				c6.328,4.223,13.024,7.904,19.92,11.049c1.896,0.865,3.809,1.688,5.737,2.472C68.143,352.051,67.608,358.546,66.932,365.015z
				 M95.812,370.228c-0.035,0.626-0.074,1.252-0.11,1.878c-9.515-1.369-18.945-3.296-28.177-5.953
				c0.539-5.081,0.997-10.17,1.3-15.271c0.1-1.686,0.181-3.374,0.244-5.063c8.896,3.567,18.115,6.29,27.502,8.227
				C96.366,359.443,96.114,364.837,95.812,370.228z M116.131,374.257c-6.593-0.46-13.185-1.129-19.74-2.054
				c0.379-5.997,0.676-11.999,0.915-18.002c4.12,0.832,8.271,1.516,12.439,2.051c8.68,1.115,17.425,1.606,26.171,1.575
				c0.146,5.773,0.245,11.546,0.299,17.32C129.505,375.026,122.803,374.722,116.131,374.257z M172.769,370.779
				c0.033,0.994,0.077,1.987,0.127,2.98c-11.918,1.183-23.943,1.594-35.948,1.401c-0.029-4.339-0.084-8.678-0.17-13.016
				c-0.029-1.439-0.062-2.878-0.096-4.318c9.303-0.066,18.607-0.724,27.833-1.871c2.809-0.349,5.622-0.738,8.433-1.164
				C172.655,360.114,172.594,365.45,172.769,370.779z M210.99,366.554c-11.635,3.435-23.631,5.656-35.691,6.962
				c-0.587,0.063-1.174,0.119-1.762,0.179c-0.009-0.192-0.021-0.383-0.029-0.575c-0.259-6.143-0.207-12.296,0.139-18.434
				c12.777-1.968,25.511-4.819,37.643-9.227C210.872,352.481,210.763,359.523,210.99,366.554z M234.922,357.378
				c-1.823,0.88-3.661,1.726-5.517,2.531c-5.791,2.513-11.726,4.642-17.759,6.449c-0.119-4.789-0.109-9.58,0.049-14.367
				c0.075-2.269,0.191-4.536,0.331-6.802c1.371-0.507,2.738-1.026,4.093-1.574c7.105-2.873,14-6.419,20.387-10.693
				c-0.076,0.404-0.152,0.808-0.223,1.212C234.938,341.793,234.469,349.614,234.922,357.378z"/>
			<path style="opacity:0.7;fill:#821522;" d="M85.05,302.093c6.437,13.419,39.121,89.048,56.023,80.829
				c15.922-7.034,37.217-53.091,45.1-69.868c1.749-3.802,3.479-7.613,5.164-11.444l0.372,0.158
				c-1.594,3.873-3.214,7.736-4.888,11.576c-6.942,15.467-31.077,70.898-48.439,71.951c-12.271,0.26-27.15-27.528-32.624-37.399
				c-7.93-14.798-14.845-30.095-21.08-45.646L85.05,302.093L85.05,302.093z"/>
			<path style="fill:#821522;" d="M47.994,355.165c-1.728-0.576-4.109,7.536-5.846,14.667c1.966,0.9,4.008,1.798,6.129,2.689
				C49.113,365.158,49.84,355.78,47.994,355.165z"/>
			<path style="fill:#821522;" d="M227.359,355.165c1.728-0.576,4.109,7.536,5.846,14.667c-1.966,0.9-4.008,1.798-6.129,2.689
				C226.24,365.158,225.513,355.78,227.359,355.165z"/>
		</g>
		<g>
			<path style="fill:#C28890;" d="M203.655,298.798c-0.81-6.507-4.218-12.423-9.474-16.343c-0.026-0.019-0.052-0.038-0.077-0.058
				c-0.368-0.274-0.733-0.543-1.096-0.807c-0.725-0.528-1.438-1.035-2.14-1.522c-1.053-0.731-2.079-1.418-3.079-2.063
				c-1.334-0.86-2.62-1.647-3.859-2.365c-0.619-0.359-1.227-0.702-1.822-1.028c-0.893-0.49-1.759-0.943-2.598-1.362
				c-0.28-0.14-0.556-0.276-0.829-0.409c-1.094-0.53-2.139-1.002-3.133-1.421c-0.249-0.105-0.494-0.207-0.737-0.305
				c-2.182-0.887-4.111-1.52-5.776-1.97c-0.185-0.05-0.367-0.098-0.545-0.143c-1.996-0.509-3.584-0.749-4.746-0.857
				c0.04,0.225,0.056,0.456,0.05,0.688c0.925,0.468,1.818,1.128,2.661,1.955c0.31,0.304,0.613,0.629,0.909,0.974
				c0.192,0.223,0.38,0.458,0.565,0.697c0.157,0.203,0.312,0.412,0.465,0.625c0.223,0.312,0.442,0.632,0.654,0.965
				c0.132,0.208,0.262,0.419,0.39,0.634c0.255,0.43,0.502,0.875,0.738,1.333c0.355,0.686,0.688,1.402,0.996,2.139
				c0.129,0.309,0.252,0.622,0.373,0.938c0.436,1.143,0.813,2.33,1.123,3.539c0.161,0.629,0.305,1.263,0.428,1.901
				c0.096,0.492,0.181,0.986,0.253,1.48c0.039,0.27,0.075,0.54,0.107,0.809c0.128,1.079,0.197,2.153,0.2,3.208
				c0.005,1.582-0.137,3.12-0.446,4.56c-0.154,0.72-0.35,1.415-0.59,2.08c-0.24,0.665-0.524,1.298-0.855,1.894
				c-0.331,0.596-0.708,1.154-1.134,1.668c-1.136,1.371-2.621,2.427-4.501,3.043c-0.47,0.154-0.965,0.28-1.484,0.377
				c-0.52,0.097-1.065,0.164-1.637,0.201c-0.333,0.021-0.661,0.049-0.984,0.082c-0.108,0.011-0.213,0.026-0.32,0.038
				c-0.027,0.003-0.054,0.006-0.081,0.01c-0.087,0.01-0.173,0.02-0.259,0.031c-0.099,0.013-0.199,0.025-0.298,0.039
				c-0.125,0.018-0.247,0.039-0.371,0.059c-0.188,0.03-0.376,0.06-0.56,0.094c-0.043,0.008-0.087,0.014-0.13,0.022
				c-0.018,0.003-0.035,0.008-0.052,0.011c-0.068,0.013-0.134,0.029-0.202,0.042c-0.175,0.035-0.35,0.071-0.522,0.11
				c-0.129,0.029-0.256,0.06-0.383,0.091c-0.071,0.017-0.143,0.033-0.213,0.05c-0.019,0.005-0.039,0.009-0.058,0.014
				c-0.077,0.02-0.151,0.042-0.227,0.062c-0.126,0.034-0.251,0.069-0.376,0.105c-0.162,0.046-0.322,0.095-0.481,0.144
				c-0.076,0.024-0.153,0.045-0.229,0.07c-0.029,0.009-0.057,0.02-0.086,0.03c-0.016,0.005-0.032,0.011-0.049,0.017
				c-0.158,0.053-0.315,0.107-0.47,0.163c-0.117,0.042-0.234,0.083-0.349,0.127c-0.091,0.034-0.183,0.07-0.273,0.105
				c-0.066,0.026-0.13,0.053-0.195,0.079c-0.108,0.044-0.217,0.087-0.324,0.132c-0.159,0.068-0.316,0.138-0.472,0.209
				c-0.091,0.041-0.184,0.081-0.274,0.124c-0.016,0.007-0.031,0.015-0.047,0.022c-0.168,0.079-0.332,0.163-0.496,0.246
				c-0.073,0.037-0.148,0.072-0.22,0.11c-0.104,0.054-0.205,0.111-0.308,0.167c-0.069,0.038-0.139,0.075-0.208,0.114
				c-0.067,0.038-0.137,0.073-0.203,0.112c-0.039,0.022-0.076,0.046-0.114,0.068c-0.196,0.114-0.39,0.229-0.581,0.348
				c-0.026,0.016-0.052,0.033-0.078,0.049c-0.043,0.027-0.084,0.055-0.126,0.082c-0.012,0.008-0.024,0.016-0.036,0.023
				c-0.145,0.093-0.29,0.186-0.433,0.283c-0.089,0.06-0.176,0.122-0.264,0.183c-0.046,0.032-0.092,0.064-0.138,0.096
				c-0.035,0.025-0.072,0.049-0.107,0.074c-0.048,0.034-0.095,0.07-0.143,0.104c-0.09,0.065-0.178,0.132-0.266,0.199
				c-0.122,0.092-0.243,0.184-0.363,0.278c-0.051,0.04-0.103,0.08-0.154,0.121c-0.041,0.033-0.08,0.066-0.12,0.099
				c-0.112,0.091-0.224,0.183-0.334,0.276c-0.085,0.072-0.17,0.145-0.254,0.217c-0.074,0.064-0.148,0.128-0.22,0.193
				c-0.04,0.036-0.08,0.073-0.12,0.109c-0.08,0.072-0.159,0.144-0.237,0.217c-0.109,0.102-0.217,0.204-0.324,0.308
				c-0.068,0.065-0.136,0.13-0.203,0.196c-0.023,0.023-0.046,0.045-0.069,0.068c-0.096,0.095-0.189,0.192-0.282,0.288
				c-0.07,0.072-0.141,0.143-0.21,0.216c-0.077,0.082-0.153,0.164-0.229,0.246c-0.049,0.053-0.098,0.106-0.146,0.159
				c-0.046,0.051-0.093,0.101-0.139,0.152c-0.132,0.147-0.261,0.297-0.388,0.447c-0.034,0.04-0.07,0.08-0.104,0.12
				c-0.018,0.021-0.036,0.043-0.053,0.064c-0.032,0.038-0.063,0.077-0.094,0.115c-0.11,0.133-0.221,0.267-0.328,0.402
				c-0.031,0.039-0.061,0.078-0.091,0.118c-0.058,0.074-0.116,0.148-0.173,0.223c-0.035,0.045-0.07,0.09-0.105,0.135
				c-0.028,0.037-0.057,0.074-0.085,0.112c-0.051,0.068-0.1,0.136-0.15,0.204c-0.096,0.13-0.192,0.26-0.286,0.391
				c-0.031,0.043-0.062,0.087-0.092,0.13c-0.036,0.051-0.071,0.102-0.106,0.152c-0.074,0.106-0.147,0.212-0.219,0.318
				c-0.055,0.081-0.109,0.163-0.163,0.244c-0.058,0.087-0.116,0.174-0.173,0.261c-0.022,0.034-0.043,0.068-0.065,0.102
				c-0.053,0.082-0.105,0.165-0.157,0.248c-0.077,0.122-0.152,0.243-0.227,0.365c-0.042,0.069-0.084,0.138-0.126,0.207
				c-0.023,0.039-0.046,0.077-0.069,0.116c-0.058,0.098-0.115,0.196-0.172,0.293c-0.047,0.081-0.095,0.163-0.141,0.245
				c-0.055,0.096-0.109,0.193-0.163,0.289c-0.028,0.051-0.056,0.101-0.084,0.152c-0.031,0.057-0.063,0.114-0.094,0.171
				c-0.071,0.131-0.14,0.261-0.209,0.392c-0.038,0.072-0.077,0.145-0.114,0.217c-0.016,0.03-0.032,0.061-0.047,0.091
				c-0.013,0.026-0.026,0.051-0.039,0.077c-0.046,0.09-0.091,0.18-0.135,0.269c-0.028,0.056-0.057,0.113-0.085,0.169
				c-0.059,0.12-0.116,0.239-0.173,0.359c-0.025,0.053-0.051,0.106-0.076,0.159c-0.013,0.027-0.027,0.055-0.039,0.082
				c-0.001,0.001-0.001,0.003-0.002,0.004h0c-0.115,0.244-0.225,0.486-0.332,0.728c-0.026,0.057-0.05,0.115-0.076,0.172
				c-0.121,0.276-0.239,0.551-0.351,0.822c-0.004,0.01-0.008,0.02-0.012,0.031c-0.11,0.268-0.214,0.532-0.315,0.793
				c-0.02,0.051-0.04,0.102-0.059,0.153c-0.099,0.258-0.193,0.513-0.283,0.764c-0.018,0.05-0.035,0.099-0.053,0.149
				c-0.091,0.256-0.179,0.509-0.261,0.756c-0.001,0.003-0.002,0.005-0.003,0.008c-0.084,0.253-0.163,0.5-0.239,0.742
				c-0.014,0.043-0.027,0.087-0.041,0.13c-0.072,0.233-0.141,0.461-0.205,0.683c-0.011,0.037-0.021,0.073-0.032,0.11
				c-0.064,0.223-0.126,0.441-0.183,0.651c-0.001,0.005-0.003,0.011-0.005,0.017c-0.059,0.217-0.113,0.425-0.164,0.628
				c-0.008,0.032-0.016,0.064-0.024,0.096c-0.049,0.196-0.095,0.385-0.138,0.566c-0.005,0.021-0.01,0.042-0.015,0.063
				c-0.043,0.185-0.084,0.362-0.12,0.529l0,0c-0.025,0.114-0.049,0.225-0.071,0.33c-1.135-5.419-6.094-22.77-23.219-23.85
				c-16.242-1.025-11.376-27.434-2.091-34.219c0.034-0.442,0.005-0.893,0.062-1.333c-4.964,0.723-14.905,3.55-29.073,14.1
				c-5.282,3.934-8.731,9.858-9.546,16.394c-1.781,14.296-3.807,39.323,3.51,41.239c10.29,2.694,11.81-16.596,25.958-25.433
				c0,0,20.582,50.98,34.379,51.078v0.002c0.007,0,0.014-0.001,0.02-0.001c0.007,0,0.014,0.001,0.02,0.001v-0.002
				c13.453-0.096,33.353-48.557,34.337-50.976c0.026-0.064,0.042-0.102,0.042-0.102c0.238,0.148,0.471,0.3,0.702,0.455
				c1.037,0.694,2.005,1.443,2.911,2.236c0.009,0.007,0.018,0.015,0.026,0.022c0.154,0.135,0.305,0.272,0.456,0.409
				c0.031,0.028,0.063,0.056,0.094,0.084c0.138,0.127,0.274,0.257,0.41,0.386c0.041,0.039,0.083,0.078,0.124,0.117
				c0.127,0.122,0.251,0.246,0.375,0.369c0.048,0.048,0.097,0.095,0.145,0.144c0.12,0.121,0.238,0.243,0.355,0.365
				c0.05,0.052,0.101,0.103,0.15,0.155c0.115,0.121,0.227,0.243,0.34,0.365c0.051,0.055,0.102,0.109,0.152,0.164
				c0.111,0.121,0.22,0.244,0.328,0.366c0.05,0.056,0.101,0.112,0.151,0.169c0.107,0.122,0.212,0.244,0.317,0.367
				c0.05,0.058,0.101,0.116,0.15,0.175c0.103,0.122,0.205,0.245,0.307,0.368c0.049,0.06,0.1,0.119,0.148,0.179
				c0.1,0.122,0.199,0.246,0.297,0.369c0.049,0.061,0.098,0.122,0.146,0.183c0.097,0.123,0.193,0.247,0.289,0.37
				c0.048,0.062,0.096,0.124,0.144,0.186c0.095,0.124,0.188,0.248,0.282,0.373c0.047,0.062,0.094,0.124,0.14,0.186
				c0.092,0.124,0.183,0.248,0.274,0.373c0.046,0.064,0.093,0.127,0.139,0.191c0.09,0.125,0.179,0.25,0.268,0.376
				c0.044,0.062,0.089,0.125,0.133,0.187c0.09,0.127,0.178,0.255,0.266,0.382c0.042,0.06,0.084,0.121,0.126,0.182
				c0.089,0.13,0.178,0.261,0.266,0.391c0.039,0.057,0.078,0.114,0.116,0.172c0.089,0.132,0.176,0.264,0.263,0.396
				c0.038,0.057,0.076,0.114,0.113,0.171c0.088,0.133,0.174,0.266,0.26,0.398c0.035,0.054,0.071,0.109,0.106,0.163
				c0.089,0.137,0.176,0.273,0.263,0.41c0.032,0.049,0.063,0.099,0.095,0.149c0.09,0.142,0.18,0.284,0.269,0.425
				c0.027,0.043,0.055,0.087,0.082,0.13c0.093,0.148,0.185,0.295,0.276,0.442c0.022,0.036,0.045,0.071,0.067,0.107
				c0.1,0.161,0.2,0.322,0.298,0.482c0.01,0.016,0.019,0.031,0.029,0.047c0.608,0.987,1.19,1.953,1.76,2.879
				c0.01,0.016,0.02,0.033,0.03,0.049c0.09,0.147,0.18,0.293,0.27,0.437c0.023,0.038,0.047,0.076,0.07,0.113
				c0.077,0.125,0.155,0.249,0.232,0.372c0.033,0.053,0.066,0.105,0.099,0.158c0.07,0.111,0.14,0.222,0.21,0.332
				c0.037,0.058,0.074,0.116,0.11,0.173c0.067,0.104,0.133,0.208,0.2,0.311c0.039,0.06,0.078,0.12,0.116,0.179
				c0.064,0.098,0.128,0.196,0.192,0.292c0.042,0.063,0.084,0.126,0.126,0.189c0.061,0.091,0.121,0.181,0.182,0.27
				c0.044,0.065,0.088,0.13,0.132,0.195c0.059,0.087,0.119,0.172,0.178,0.258c0.027,0.038,0.054,0.078,0.081,0.116
				c0.018,0.026,0.036,0.05,0.054,0.076c0.059,0.083,0.117,0.165,0.176,0.246c0.046,0.063,0.091,0.127,0.137,0.189
				c0.059,0.08,0.117,0.159,0.176,0.237c0.046,0.062,0.092,0.124,0.139,0.184c0.058,0.076,0.116,0.151,0.174,0.225
				c0.048,0.061,0.095,0.122,0.143,0.181c0.057,0.072,0.115,0.143,0.173,0.213c0.048,0.059,0.097,0.119,0.146,0.177
				c0.057,0.068,0.115,0.135,0.172,0.202c0.049,0.057,0.099,0.115,0.149,0.171c0.058,0.065,0.115,0.129,0.173,0.192
				c0.05,0.055,0.1,0.109,0.15,0.163c0.058,0.062,0.116,0.122,0.175,0.182c0.051,0.052,0.101,0.105,0.152,0.156
				c0.058,0.058,0.117,0.114,0.175,0.171c0.052,0.05,0.104,0.1,0.156,0.149c0.058,0.054,0.117,0.107,0.176,0.159
				c0.053,0.047,0.106,0.095,0.159,0.14c0.059,0.051,0.119,0.099,0.179,0.148c0.054,0.044,0.107,0.088,0.161,0.131
				c0.06,0.047,0.121,0.092,0.182,0.137c0.054,0.041,0.109,0.082,0.164,0.121c0.061,0.043,0.123,0.084,0.184,0.125
				c0.056,0.037,0.111,0.076,0.168,0.111c0.062,0.039,0.125,0.076,0.187,0.113c0.057,0.034,0.113,0.069,0.171,0.101
				c0.064,0.036,0.128,0.069,0.192,0.102c0.057,0.03,0.114,0.061,0.172,0.089c0.065,0.031,0.13,0.06,0.196,0.089
				c0.059,0.026,0.117,0.054,0.177,0.078c0.066,0.027,0.133,0.051,0.2,0.076c0.06,0.022,0.12,0.046,0.18,0.067
				c0.068,0.023,0.137,0.043,0.205,0.063c0.061,0.018,0.121,0.038,0.183,0.055c0.07,0.019,0.141,0.034,0.211,0.05
				c0.062,0.014,0.123,0.03,0.186,0.042c0.072,0.014,0.146,0.025,0.219,0.036c0.062,0.01,0.124,0.021,0.187,0.029
				c0.075,0.009,0.151,0.015,0.227,0.022c0.063,0.005,0.125,0.013,0.189,0.017c0.078,0.004,0.158,0.005,0.238,0.006
				c0.063,0.001,0.125,0.005,0.188,0.004c0.083-0.001,0.168-0.006,0.252-0.01c0.062-0.003,0.123-0.004,0.185-0.008
				c0.089-0.007,0.179-0.018,0.269-0.029c0.06-0.007,0.119-0.011,0.179-0.02c0.097-0.014,0.197-0.033,0.296-0.05
				c0.055-0.01,0.109-0.017,0.165-0.028c0.155-0.031,0.313-0.068,0.472-0.109c4.019-1.052,5.22-9.077,5.19-18.466
				C205.31,313.865,204.458,305.242,203.655,298.798z"/>
			<path style="opacity:0.6;fill:#C28890;" d="M200.144,335.828c-0.159,0.042-0.317,0.078-0.472,0.109
				c-0.056,0.011-0.11,0.018-0.165,0.028c-0.099,0.018-0.199,0.037-0.296,0.05c-0.061,0.008-0.119,0.013-0.179,0.02
				c-0.09,0.01-0.181,0.022-0.269,0.029c-0.063,0.005-0.123,0.005-0.185,0.008c-0.084,0.004-0.169,0.01-0.252,0.01
				c-0.063,0.001-0.125-0.003-0.188-0.004c-0.08-0.001-0.16-0.002-0.238-0.006c-0.064-0.004-0.126-0.011-0.189-0.017
				c-0.076-0.007-0.152-0.012-0.227-0.022c-0.063-0.008-0.125-0.019-0.187-0.029c-0.073-0.012-0.147-0.022-0.219-0.036
				c-0.062-0.012-0.124-0.028-0.186-0.042c-0.071-0.016-0.142-0.031-0.211-0.05c-0.062-0.017-0.122-0.036-0.183-0.055
				c-0.069-0.021-0.138-0.04-0.205-0.063c-0.061-0.021-0.12-0.044-0.18-0.067c-0.067-0.025-0.134-0.049-0.2-0.076
				c-0.059-0.025-0.118-0.052-0.177-0.078c-0.066-0.029-0.131-0.058-0.196-0.089c-0.058-0.028-0.115-0.059-0.172-0.089
				c-0.064-0.033-0.129-0.066-0.192-0.102c-0.057-0.032-0.114-0.067-0.171-0.101c-0.063-0.037-0.125-0.074-0.187-0.113
				c-0.056-0.036-0.112-0.074-0.168-0.111c-0.062-0.041-0.123-0.082-0.184-0.126c-0.055-0.039-0.109-0.08-0.164-0.121
				c-0.061-0.045-0.122-0.09-0.182-0.137c-0.054-0.042-0.108-0.087-0.161-0.131c-0.06-0.049-0.119-0.098-0.179-0.148
				c-0.053-0.046-0.106-0.093-0.159-0.14c-0.059-0.052-0.118-0.105-0.176-0.159c-0.052-0.048-0.104-0.099-0.156-0.149
				c-0.058-0.056-0.117-0.113-0.175-0.171c-0.051-0.051-0.102-0.104-0.152-0.156c-0.058-0.06-0.117-0.12-0.175-0.182
				c-0.05-0.053-0.1-0.108-0.15-0.163c-0.058-0.063-0.116-0.127-0.173-0.192c-0.05-0.056-0.099-0.114-0.149-0.171
				c-0.057-0.067-0.115-0.134-0.172-0.202c-0.049-0.058-0.097-0.117-0.146-0.177c-0.058-0.07-0.115-0.141-0.173-0.213
				c-0.048-0.06-0.095-0.121-0.143-0.181c-0.058-0.074-0.116-0.149-0.174-0.225c-0.046-0.061-0.093-0.123-0.139-0.184
				c-0.059-0.078-0.117-0.157-0.176-0.237c-0.046-0.063-0.091-0.126-0.137-0.189c-0.059-0.082-0.117-0.163-0.176-0.246
				c-0.018-0.025-0.036-0.05-0.054-0.076c-0.027-0.038-0.054-0.078-0.081-0.116c-0.059-0.085-0.119-0.171-0.178-0.258
				c-0.044-0.064-0.088-0.129-0.132-0.195c-0.061-0.089-0.121-0.179-0.182-0.27c-0.042-0.063-0.084-0.126-0.126-0.189
				c-0.064-0.097-0.128-0.194-0.192-0.292c-0.039-0.059-0.078-0.119-0.116-0.179c-0.067-0.103-0.133-0.206-0.2-0.311
				c-0.037-0.057-0.074-0.115-0.11-0.173c-0.07-0.11-0.14-0.22-0.21-0.332c-0.033-0.052-0.066-0.105-0.099-0.158
				c-0.077-0.123-0.155-0.247-0.232-0.372c-0.023-0.038-0.047-0.076-0.07-0.113c-0.09-0.145-0.18-0.29-0.27-0.437
				c-0.01-0.016-0.02-0.033-0.03-0.049c-0.569-0.927-1.152-1.892-1.76-2.879c-0.01-0.016-0.019-0.031-0.029-0.047
				c-0.099-0.16-0.198-0.321-0.298-0.482c-0.022-0.036-0.045-0.071-0.067-0.107c-0.091-0.147-0.184-0.294-0.276-0.442
				c-0.027-0.043-0.055-0.087-0.082-0.13c-0.089-0.142-0.179-0.283-0.269-0.425c-0.032-0.05-0.063-0.099-0.095-0.149
				c-0.087-0.137-0.175-0.273-0.263-0.41c-0.035-0.054-0.071-0.109-0.106-0.163c-0.086-0.133-0.173-0.266-0.26-0.398
				c-0.038-0.057-0.076-0.114-0.113-0.171c-0.087-0.132-0.175-0.264-0.263-0.396c-0.038-0.057-0.077-0.114-0.116-0.172
				c-0.088-0.13-0.177-0.261-0.266-0.391c-0.042-0.061-0.084-0.121-0.126-0.182c-0.088-0.128-0.177-0.255-0.266-0.382
				c-0.044-0.062-0.089-0.125-0.133-0.187c-0.089-0.125-0.178-0.25-0.268-0.376c-0.046-0.064-0.093-0.127-0.139-0.191
				c-0.091-0.124-0.182-0.249-0.274-0.373c-0.046-0.062-0.093-0.124-0.14-0.186c-0.093-0.124-0.187-0.249-0.282-0.373
				c-0.048-0.062-0.096-0.124-0.144-0.186c-0.096-0.124-0.191-0.247-0.289-0.37c-0.048-0.061-0.098-0.122-0.146-0.183
				c-0.098-0.123-0.197-0.247-0.297-0.369c-0.049-0.06-0.099-0.12-0.148-0.179c-0.102-0.123-0.203-0.246-0.307-0.368
				c-0.049-0.059-0.1-0.117-0.15-0.175c-0.105-0.123-0.21-0.245-0.317-0.367c-0.05-0.057-0.101-0.112-0.151-0.169
				c-0.109-0.122-0.218-0.245-0.328-0.366c-0.05-0.055-0.101-0.109-0.152-0.164c-0.113-0.122-0.225-0.244-0.34-0.365
				c-0.049-0.052-0.1-0.103-0.15-0.155c-0.118-0.122-0.235-0.244-0.355-0.365c-0.048-0.048-0.097-0.096-0.145-0.144
				c-0.124-0.124-0.248-0.247-0.375-0.369c-0.041-0.039-0.083-0.078-0.124-0.117c-0.136-0.129-0.272-0.259-0.41-0.386
				c-0.031-0.028-0.063-0.056-0.094-0.084c-0.151-0.137-0.302-0.274-0.456-0.409c-0.009-0.008-0.018-0.015-0.026-0.022
				c-0.907-0.793-1.874-1.543-2.911-2.236c-0.231-0.154-0.464-0.306-0.702-0.455c0,0-0.015,0.038-0.042,0.102
				c-0.985,2.419-20.884,50.88-34.337,50.976v0.002c-0.007,0-0.013-0.001-0.02-0.001c-0.007,0-0.013,0.001-0.02,0.001v-0.002
				c-13.797-0.098-34.379-51.078-34.379-51.078c-14.148,8.837-15.668,28.127-25.958,25.433c-3.674-0.962-4.992-7.749-5.169-16.078
				c-0.192,10.151,0.892,19.165,5.169,20.284c10.29,2.694,11.81-16.596,25.958-25.433c0,0,20.582,50.98,34.379,51.078v0.002
				c0.007,0,0.014-0.001,0.02-0.001c0.007,0,0.014,0.001,0.02,0.001v-0.002c13.453-0.096,33.353-48.557,34.337-50.976
				c0.026-0.064,0.042-0.102,0.042-0.102c0.238,0.148,0.471,0.3,0.702,0.455c1.037,0.694,2.005,1.443,2.911,2.236
				c0.009,0.007,0.018,0.015,0.026,0.022c0.154,0.135,0.305,0.272,0.456,0.409c0.031,0.028,0.063,0.056,0.094,0.084
				c0.138,0.127,0.274,0.257,0.41,0.386c0.041,0.039,0.083,0.078,0.124,0.117c0.127,0.122,0.251,0.246,0.375,0.369
				c0.048,0.048,0.097,0.095,0.145,0.144c0.12,0.121,0.238,0.243,0.355,0.365c0.05,0.052,0.101,0.103,0.15,0.155
				c0.115,0.121,0.227,0.243,0.34,0.365c0.051,0.055,0.102,0.109,0.152,0.164c0.111,0.121,0.22,0.244,0.328,0.366
				c0.05,0.056,0.101,0.112,0.151,0.169c0.107,0.122,0.212,0.244,0.317,0.367c0.05,0.058,0.101,0.116,0.15,0.175
				c0.103,0.122,0.205,0.245,0.307,0.368c0.049,0.06,0.1,0.119,0.148,0.179c0.1,0.122,0.199,0.246,0.297,0.369
				c0.049,0.061,0.098,0.122,0.146,0.183c0.097,0.123,0.193,0.247,0.289,0.37c0.048,0.062,0.096,0.124,0.144,0.186
				c0.095,0.124,0.188,0.248,0.282,0.373c0.047,0.062,0.094,0.124,0.14,0.186c0.092,0.124,0.183,0.248,0.274,0.373
				c0.046,0.064,0.093,0.127,0.139,0.191c0.09,0.125,0.179,0.25,0.268,0.376c0.044,0.062,0.089,0.125,0.133,0.187
				c0.09,0.127,0.178,0.255,0.266,0.382c0.042,0.06,0.084,0.121,0.126,0.182c0.089,0.13,0.178,0.261,0.266,0.391
				c0.039,0.057,0.078,0.114,0.116,0.172c0.089,0.132,0.176,0.264,0.263,0.396c0.038,0.057,0.076,0.114,0.113,0.171
				c0.088,0.133,0.174,0.266,0.26,0.398c0.035,0.054,0.071,0.109,0.106,0.163c0.089,0.137,0.176,0.273,0.263,0.41
				c0.032,0.049,0.063,0.099,0.095,0.149c0.09,0.142,0.18,0.284,0.269,0.425c0.027,0.043,0.055,0.087,0.082,0.13
				c0.093,0.148,0.185,0.295,0.276,0.442c0.022,0.036,0.045,0.071,0.067,0.107c0.1,0.161,0.2,0.322,0.298,0.482
				c0.01,0.016,0.019,0.031,0.029,0.047c0.608,0.987,1.19,1.953,1.76,2.879c0.01,0.016,0.02,0.033,0.03,0.049
				c0.09,0.147,0.18,0.293,0.27,0.437c0.023,0.038,0.047,0.076,0.07,0.113c0.077,0.125,0.155,0.249,0.232,0.372
				c0.033,0.053,0.066,0.105,0.099,0.158c0.07,0.111,0.14,0.222,0.21,0.332c0.037,0.058,0.074,0.116,0.11,0.173
				c0.067,0.104,0.133,0.208,0.2,0.311c0.039,0.06,0.078,0.12,0.116,0.179c0.064,0.098,0.128,0.196,0.192,0.292
				c0.042,0.063,0.084,0.126,0.126,0.189c0.061,0.091,0.121,0.181,0.182,0.27c0.044,0.065,0.088,0.13,0.132,0.195
				c0.059,0.087,0.119,0.172,0.178,0.258c0.027,0.038,0.054,0.078,0.081,0.116c0.018,0.026,0.036,0.05,0.054,0.076
				c0.059,0.083,0.117,0.165,0.176,0.246c0.046,0.063,0.091,0.127,0.137,0.189c0.059,0.08,0.117,0.159,0.176,0.237
				c0.046,0.062,0.092,0.124,0.139,0.184c0.058,0.076,0.116,0.151,0.174,0.225c0.048,0.061,0.095,0.122,0.143,0.181
				c0.057,0.072,0.115,0.143,0.173,0.213c0.048,0.059,0.097,0.119,0.146,0.177c0.057,0.068,0.115,0.135,0.172,0.202
				c0.049,0.057,0.099,0.115,0.149,0.171c0.058,0.065,0.115,0.129,0.173,0.192c0.05,0.055,0.1,0.109,0.15,0.163
				c0.058,0.062,0.116,0.122,0.175,0.182c0.051,0.052,0.101,0.105,0.152,0.156c0.058,0.058,0.117,0.114,0.175,0.171
				c0.052,0.05,0.104,0.1,0.156,0.149c0.058,0.054,0.117,0.107,0.176,0.159c0.053,0.047,0.106,0.095,0.159,0.14
				c0.059,0.051,0.119,0.099,0.179,0.148c0.054,0.044,0.107,0.088,0.161,0.131c0.06,0.047,0.121,0.092,0.182,0.137
				c0.054,0.041,0.109,0.082,0.164,0.121c0.061,0.043,0.123,0.084,0.184,0.125c0.056,0.037,0.111,0.076,0.168,0.111
				c0.062,0.039,0.125,0.076,0.187,0.113c0.057,0.034,0.113,0.069,0.171,0.101c0.064,0.036,0.128,0.069,0.192,0.102
				c0.057,0.03,0.114,0.061,0.172,0.089c0.065,0.031,0.13,0.06,0.196,0.089c0.059,0.026,0.117,0.054,0.177,0.078
				c0.066,0.027,0.133,0.051,0.2,0.076c0.06,0.022,0.12,0.046,0.18,0.067c0.068,0.023,0.137,0.043,0.205,0.063
				c0.061,0.018,0.121,0.038,0.183,0.055c0.07,0.019,0.141,0.034,0.211,0.05c0.062,0.014,0.123,0.03,0.186,0.042
				c0.072,0.014,0.146,0.025,0.219,0.036c0.062,0.01,0.124,0.021,0.187,0.029c0.075,0.009,0.151,0.015,0.227,0.022
				c0.063,0.005,0.125,0.013,0.189,0.017c0.078,0.004,0.158,0.005,0.238,0.006c0.063,0.001,0.125,0.005,0.188,0.004
				c0.083-0.001,0.168-0.006,0.252-0.01c0.062-0.003,0.123-0.004,0.185-0.008c0.089-0.007,0.179-0.018,0.269-0.029
				c0.06-0.007,0.119-0.011,0.179-0.02c0.097-0.014,0.197-0.033,0.296-0.05c0.055-0.01,0.109-0.017,0.165-0.028
				c0.155-0.031,0.313-0.068,0.472-0.109c4.019-1.052,5.22-9.077,5.19-18.466c-0.002-0.596-0.01-1.199-0.022-1.805
				C205.135,328.086,203.816,334.867,200.144,335.828z"/>
			<g>
				<path style="fill:#C28890;" d="M116.568,303.853c-16.242-1.025-11.376-27.434-2.091-34.219c0.034-0.442,0.005-0.893,0.062-1.333
					c-4.964,0.723-14.905,3.55-29.073,14.1c-5.282,3.934-8.731,9.858-9.546,16.394c-1.781,14.296-3.807,39.323,3.51,41.239
					c10.29,2.694,11.81-16.596,25.958-25.433c0,0,0.041,0.102,0.117,0.286c0.5-0.347,1.023-0.67,1.57-0.963
					c3.497-1.872,7.742-2.907,11.788-2.594c4.028,0.312,7.81,1.886,10.997,4.136c3.319,2.342,6.051,5.368,8.125,8.704
					c0.643,1.033,1.218,2.104,1.731,3.201C138.455,321.615,133.36,304.913,116.568,303.853z"/>
				<path style="fill:#C28890;" d="M116.568,303.853c-16.242-1.025-11.376-27.434-2.091-34.219c0.034-0.442,0.005-0.893,0.062-1.333
					c-4.964,0.723-14.905,3.55-29.073,14.1c-5.282,3.934-8.731,9.858-9.546,16.394c-1.781,14.296-3.807,39.323,3.51,41.239
					c10.123,2.651,11.758-15.977,25.281-24.995c1.128-1.621,2.473-3.125,3.939-4.492c1.528-1.425,3.216-2.767,5.236-3.556
					c4.005-1.565,8.525-0.807,12.146,1.253c3.796,2.16,6.88,5.302,9.417,8.648c0.47,0.62,0.918,1.252,1.356,1.889
					C133.657,312.09,127.669,304.553,116.568,303.853z"/>
			</g>
			<g>
				<path style="fill:#C28890;" d="M194.176,282.451c-15.567-11.608-26.042-13.899-30.434-14.306
					c0.039,0.225,0.056,0.454,0.05,0.685c10.1,5.112,16.202,33.951-0.785,35.023c-16.792,1.059-21.887,17.762-23.149,23.52
					c0.513-1.096,1.088-2.167,1.731-3.201c2.074-3.336,4.807-6.362,8.125-8.704c3.187-2.25,6.969-3.824,10.997-4.136
					c4.046-0.314,8.29,0.722,11.788,2.594c0.547,0.293,1.07,0.616,1.57,0.963c0.076-0.184,0.117-0.286,0.117-0.286
					c14.148,8.837,15.668,28.127,25.958,25.433c7.318-1.916,5.291-26.944,3.511-41.24
					C202.844,292.287,199.433,286.371,194.176,282.451z"/>
				<path style="fill:#C28890;" d="M194.176,282.451c-15.567-11.608-26.042-13.899-30.434-14.306
					c0.039,0.225,0.056,0.454,0.05,0.685c10.1,5.112,16.202,33.951-0.785,35.023c-11.1,0.7-17.089,8.236-20.238,14.928
					c0.438-0.638,0.886-1.27,1.356-1.889c2.537-3.346,5.621-6.488,9.417-8.648c3.621-2.061,8.141-2.818,12.146-1.253
					c2.02,0.789,3.708,2.131,5.236,3.556c1.466,1.367,2.811,2.871,3.939,4.492c13.522,9.018,15.158,27.646,25.281,24.995
					c7.318-1.916,5.291-26.944,3.511-41.24C202.844,292.287,199.433,286.371,194.176,282.451z"/>
			</g>
		</g>
		<g>
			<path style="fill:#821522;" d="M146.616,348.828c0,3.426-2.777,6.203-6.203,6.203c-3.426,0-6.203-2.777-6.203-6.203
				s2.777-6.203,6.203-6.203C143.838,342.625,146.616,345.402,146.616,348.828z"/>
			<path style="opacity:0.4;fill:#821522;" d="M142.983,346.782c0,1.419-1.151,2.57-2.57,2.57c-1.419,0-2.57-1.151-2.57-2.57
				s1.151-2.57,2.57-2.57C141.832,344.212,142.983,345.362,142.983,346.782z"/>
		</g>
	</g>
	<g>
		<path style="fill:#D3926E;" d="M212.963,104.371c0.66,9.2-0.638,18.74-1.225,27.674c-1.019,15.517-2.582,31.002-4.948,46.396
			c-2.219,14.435-4.954,29.232-10.871,42.82c-7.416,17.032-27.121,27.564-44.861,34.227c-3.615,1.358-7.227,3.122-11.164,3.544
			c-4.241,0.454-8.074-1.195-11.925-2.578c-8.15-2.926-16.069-6.496-23.383-10.899c-10.101-6.081-19.594-14.103-24.092-24.571
			c-11.972-27.86-13.588-60.237-15.421-89.79c-0.854-13.763-3.466-28.829,3.039-41.742c3.835-7.612,9.977-14.081,17.493-18.881
			c15.628-9.983,35.642-12.63,54.315-12.585c24.887,0.06,54.377,5.532,67.415,27.13C210.951,91.106,212.48,97.648,212.963,104.371z"
			/>
		<path style="opacity:0.5;fill:#D3926E;" d="M212.963,104.371c-0.483-6.723-2.011-13.265-5.628-19.256
			c-13.039-21.598-42.529-27.07-67.415-27.13c-18.673-0.045-38.687,2.602-54.315,12.585c-7.515,4.801-13.658,11.269-17.493,18.881
			c-6.505,12.913-3.893,27.979-3.039,41.742c0.886,14.28,1.724,29.218,3.702,43.989c-0.019-13.858,2.312-29.219,10.163-41.868
			c0,0,43.984-9.774,75.75-54.301c0,0,48.816-5.911,40.97,40.757h17.056C213.094,114.64,213.327,109.454,212.963,104.371z"/>
		<g>
			<path style="fill:#3A3F4F;" d="M72.343,188.869c0,0-15.66-53.69,11.857-81.207L55.117,94.687c0,0-26.398,12.08-23.042,23.042
				C35.431,128.691,72.343,188.869,72.343,188.869z"/>
			<path style="opacity:0.7;fill:#3A3F4F;" d="M72.343,188.869c0,0-15.66-53.69,11.857-81.207L55.117,94.687
				c0,0-26.398,12.08-23.042,23.042C35.431,128.691,72.343,188.869,72.343,188.869z"/>
		</g>
		<g>
			<path style="fill:#3A3F4F;" d="M218.748,94.687l-13.968,6.754c-0.211,1.665-0.414,3.331-0.622,4.997
				c-0.428,3.439-0.849,6.88-1.195,10.329c-0.283,2.822-0.513,5.655-0.654,8.492c10.109,28.069,0.545,63.61,0.545,63.61
				s34.057-60.178,37.153-71.14C243.104,106.767,218.748,94.687,218.748,94.687z"/>
			<path style="opacity:0.7;fill:#3A3F4F;" d="M218.748,94.687l-13.968,6.754c-0.211,1.665-0.414,3.331-0.622,4.997
				c-0.428,3.439-0.849,6.88-1.195,10.329c-0.283,2.822-0.513,5.655-0.654,8.492c10.109,28.069,0.545,63.61,0.545,63.61
				s34.057-60.178,37.153-71.14C243.104,106.767,218.748,94.687,218.748,94.687z"/>
		</g>
		<g>
			<path style="fill:#3A3F4F;" d="M190.956,47.093c0,0,3.736,18.665-14.953,30.598c0,0-21.129-12.993-56.862,6.006
				C119.142,83.697,142.15,30.882,190.956,47.093z"/>
			<path style="opacity:0.7;fill:#3A3F4F;" d="M190.956,47.093c0,0,3.736,18.665-14.953,30.598c0,0-21.129-12.993-56.862,6.006
				C119.142,83.697,142.15,30.882,190.956,47.093z"/>
		</g>
		<g>
			<g>
				<g>
					<g>
						<g>
							<path style="fill:#FFFFFF;" d="M82.22,166.628l1.618,7.613c0,0,5.097,7.453,17.752,8.916
								c12.656,1.464,19.698-4.913,19.698-4.913s-0.328-21.001-20.559-21.259S82.22,166.628,82.22,166.628z"/>
							<g>
								<circle style="fill:#726658;" cx="103.437" cy="167.876" r="11.563"/>
								
									<ellipse transform="matrix(0.9732 -0.2298 0.2298 0.9732 -35.8027 28.2555)" style="fill:#241F20;" cx="103.436" cy="167.876" rx="8.369" ry="8.369"/>
								<circle style="fill:#FFFFFF;" cx="109.418" cy="165.517" r="3.478"/>
							</g>
							<path style="fill:#231F20;" d="M121.289,178.245c0,0,0.387-19.758-14.464-22.858c-14.851-3.099-27.249,6.974-27.249,6.974
								s-0.775,7.361,4.262,11.881c0,0-0.517-9.944,0.517-11.106c1.033-1.162,12.353-8.105,24.666-3.358
								C119.74,163.911,121.289,178.245,121.289,178.245z"/>
						</g>
						<path style="fill:#754C29;" d="M95.594,152.153c2.73-0.528,5.504-0.823,8.297-0.884c2.813-0.036,5.655,0.109,8.369,0.986
							c4.32,1.242,6.713,5.64,7.46,9.795c0.263,1.381,0.408,2.778,0.365,4.179c-0.002,0.049-0.043,0.088-0.092,0.087
							c-0.046-0.002-0.082-0.037-0.086-0.082c-0.382-2.724-1.076-5.419-2.3-7.814c-1.201-2.379-3.093-4.368-5.681-5.168
							c-2.54-0.83-5.303-1.073-8.038-1.161c-2.745-0.073-5.51,0.016-8.266,0.238c-0.05,0.005-0.095-0.032-0.099-0.082
							C95.518,152.203,95.55,152.162,95.594,152.153L95.594,152.153z"/>
					</g>
					<path style="fill:#3A3F4F;" d="M122.285,149.541c-35.894-5.173-51.096,8.551-51.096,8.551s12.279-22.029,46.758-17.277
						l1.616,2.204l-1.234-3.331c0,0,2.914,3.599,3.958,8.654C122.369,148.736,122.362,149.145,122.285,149.541L122.285,149.541z"/>
				</g>
				<g>
					<g>
						<g>
							<path style="fill:#FFFFFF;" d="M193.305,166.628l-1.618,7.613c0,0-5.097,7.453-17.752,8.916
								c-12.655,1.464-19.698-4.913-19.698-4.913s0.328-21.001,20.559-21.259C195.027,156.728,193.305,166.628,193.305,166.628z"/>
							<g>
								<circle style="fill:#726658;" cx="172.089" cy="167.876" r="11.563"/>
								
									<ellipse transform="matrix(0.7071 -0.7071 0.7071 0.7071 -68.3025 170.8547)" style="fill:#241F20;" cx="172.089" cy="167.876" rx="8.369" ry="8.369"/>
								<path style="fill:#FFFFFF;" d="M169.586,165.517c0,1.921-1.557,3.478-3.478,3.478c-1.921,0-3.478-1.557-3.478-3.478
									s1.557-3.478,3.478-3.478C168.029,162.039,169.586,163.596,169.586,165.517z"/>
							</g>
							<path style="fill:#231F20;" d="M154.236,178.245c0,0-0.387-19.758,14.464-22.858c14.851-3.099,27.249,6.974,27.249,6.974
								s0.775,7.361-4.262,11.881c0,0,0.516-9.944-0.517-11.106c-1.033-1.162-12.354-8.105-24.666-3.358
								C155.786,163.911,154.236,178.245,154.236,178.245z"/>
						</g>
						<path style="fill:#754C29;" d="M179.931,152.153c-2.73-0.528-5.504-0.823-8.297-0.884c-2.814-0.036-5.655,0.109-8.369,0.986
							c-4.32,1.242-6.713,5.64-7.46,9.795c-0.263,1.381-0.408,2.778-0.365,4.179c0.001,0.049,0.043,0.088,0.092,0.087
							c0.046-0.002,0.082-0.037,0.086-0.082c0.382-2.724,1.076-5.419,2.3-7.814c1.201-2.379,3.094-4.368,5.681-5.168
							c2.54-0.83,5.303-1.073,8.038-1.161c2.745-0.073,5.51,0.016,8.266,0.238c0.05,0.005,0.095-0.032,0.099-0.082
							C180.007,152.203,179.975,152.162,179.931,152.153L179.931,152.153z"/>
					</g>
					<path style="fill:#3A3F4F;" d="M153.24,149.541c35.894-5.173,51.096,8.551,51.096,8.551s-12.279-22.029-46.758-17.277
						l-1.616,2.204l1.234-3.331c0,0-2.914,3.599-3.958,8.654C153.156,148.736,153.163,149.145,153.24,149.541L153.24,149.541z"/>
				</g>
			</g>
			<g>
				<g style="opacity:0.5;">
					<path style="fill:#D3926E;" d="M152.263,198.375c-0.61-2.805-3.342-4.97-5.981-5.919c-3.382-1.216-7.081-1.636-10.662-1.306
						c-3.276,0.302-6.948,1.1-9.602,3.109c-0.295,0.223-0.577,0.462-0.843,0.717c-3.994,3.817-1.469,9.183,1.521,12.681
						c1.453,1.699,3.188,3.138,5.108,4.232c2.065,1.176,4.499,1.565,6.837,1.365c2.456-0.21,4.872-1.086,6.878-2.527
						c1.647-1.183,3.062-2.804,4.306-4.422C151.525,204.095,152.877,201.2,152.263,198.375z M137.762,202.865
						c-5.722,0-10.36-2.125-10.36-4.747c0-2.622,4.638-4.747,10.36-4.747c5.722,0,10.36,2.125,10.36,4.747
						C148.123,200.74,143.484,202.865,137.762,202.865z"/>
				</g>
				<g>
					<path style="fill:#754C29;" d="M133.76,206.898c-0.919-0.847-1.996-1.445-3.155-1.951c-0.809-0.353-2.869-1.16-3.019,0.34
						c-0.037,0.372,0.146,0.734,0.382,1.023c1.336,1.636,3.676,2.974,5.824,3.042c0.422,0.013,1.009-0.079,1.163-0.543
						c0.178-0.537-0.364-1.041-0.683-1.394C134.109,207.233,133.937,207.061,133.76,206.898z"/>
					<path style="fill:#754C29;" d="M141.765,206.898c0.919-0.847,1.996-1.445,3.155-1.951c0.808-0.353,2.869-1.16,3.019,0.34
						c0.037,0.372-0.146,0.734-0.383,1.023c-1.336,1.636-3.676,2.974-5.824,3.042c-0.422,0.013-1.008-0.079-1.163-0.543
						c-0.179-0.537,0.364-1.041,0.683-1.394C141.417,207.233,141.588,207.061,141.765,206.898z"/>
				</g>
			</g>
			<g>
				<path style="fill:#FED09E;" d="M138.711,235.163c1.202,0,2.331-0.049,3.535-0.244c1.239-0.201,2.466-0.473,3.675-0.811
					c2.419-0.676,4.763-1.619,6.98-2.798c4.389-2.334,8.292-6.453,11.286-10.427c-4.32,0.1-8.641,0.518-12.962,0.567
					c-4.321,0.048-8.737,0.61-12.591,2.564c-8.073-3.357-17.169-2.771-25.889-2.129c3.176,3.753,6.93,7.054,11.231,9.435
					c4.358,2.413,9.272,3.843,14.269,3.843H138.711z"/>
				<g>
					<path style="fill:#FED09E;" d="M137.908,228.581h-0.292c-0.009,0-0.018,0-0.027-0.001c-19.404-0.103-29.175-9.544-29.272-9.64
						c-0.17-0.168-0.172-0.443-0.004-0.613c0.169-0.171,0.443-0.172,0.614-0.004c0.095,0.094,9.696,9.343,28.835,9.39
						c19.139-0.048,28.74-9.297,28.835-9.39c0.171-0.167,0.445-0.167,0.614,0.004c0.169,0.17,0.167,0.445-0.003,0.613
						c-0.097,0.096-9.867,9.537-29.272,9.64C137.927,228.581,137.917,228.581,137.908,228.581z"/>
				</g>
				<g>
					<path style="fill:#726658;" d="M137.908,228.581h-0.292c-0.009,0-0.018,0-0.027-0.001c-19.404-0.103-29.175-9.544-29.272-9.64
						c-0.17-0.168-0.172-0.443-0.004-0.613c0.169-0.171,0.443-0.172,0.614-0.004c0.095,0.094,9.696,9.343,28.835,9.39
						c19.139-0.048,28.74-9.297,28.835-9.39c0.171-0.167,0.445-0.167,0.614,0.004c0.169,0.17,0.167,0.445-0.003,0.613
						c-0.097,0.096-9.867,9.537-29.272,9.64C137.927,228.581,137.917,228.581,137.908,228.581z"/>
				</g>
			</g>
		</g>
		<g>
			<g>
				<path style="fill:#D3926E;" d="M72.702,178.209c-1.937-5.29-4.185-10.494-7.96-14.759c-6.925-7.825-19.686-4.144-23.327,5.097
					c-2.877,7.299,0.224,15.709,3.854,22.168c3.341,5.944,7.731,12.005,14.316,14.7c5.488,2.246,15.518,3.014,17.702-4.192
					c1.806-5.961-1.333-13.817-3.297-19.402C73.567,180.619,73.143,179.411,72.702,178.209z"/>
				<path style="fill:#D3926E;" d="M64.126,179.434c0,0-4.816-2.549-5.099,3.305c-0.283,5.854,4.91,9.159,4.91,9.159
					s-14.352,2.455-15.769-12.558C46.752,164.326,61.293,165.648,64.126,179.434z"/>
			</g>
			<g>
				<path style="fill:#D3926E;" d="M199.679,178.209c1.937-5.29,4.185-10.494,7.96-14.759c6.926-7.825,19.686-4.144,23.328,5.097
					c2.877,7.299-0.224,15.709-3.854,22.168c-3.34,5.944-7.731,12.005-14.316,14.7c-5.488,2.246-15.518,3.014-17.702-4.192
					c-1.806-5.961,1.333-13.817,3.297-19.402C198.815,180.619,199.239,179.411,199.679,178.209z"/>
				<path style="fill:#D3926E;" d="M208.256,179.434c0,0,4.816-2.549,5.099,3.305c0.283,5.854-4.91,9.159-4.91,9.159
					s14.352,2.455,15.769-12.558C225.63,164.326,211.089,165.648,208.256,179.434z"/>
			</g>
		</g>
		<g>
			<path style="fill:#3A3F4F;" d="M18.497,120.777c0.056,0.038,0.111,0.076,0.167,0.113c6.859,4.548,16.778,3.679,24.533,2.381
				c7.567-1.267,14.963-3.477,22.125-6.114c1.904-0.701,3.794-1.437,5.665-2.216c0.651-0.271,1.538-0.496,2.113-0.908
				C56.158,126.155,32.83,126.03,32.83,126.03c41.835,6.624,71.819-19.924,71.819-19.924
				c-14.596,18.217-34.382,21.003-34.382,21.003c41.718,0.261,100.341-79.486,114.52-76.087c14.179,3.399-9.543,26.67-9.543,26.67
				s27.033-14.888,15.773-40.557c-11.26-25.67-51.413-35.448-85.831-19.15S40.6,64.433,20.417,64.025c0,0,10.198,6.927,25.069-3.056
				c0,0-14.447,12.02-36.754,10.186c0,0,9.56,12.427,28.893,5.501c0,0-18.87,7.357-8.995,9.827c0,0-4.723,3.156-10.59,1.647
				c0,0,5.581,7.96,21.896,3.842c0,0-11.449,10.979-24.329,10.979c0,0,4.436,6.725,26.476,2.47c0,0-8.73,4.94-23.184,4.529
				c0.141,0.004,0.535,0.419,0.647,0.499c0.629,0.452,1.301,0.851,1.988,1.216c2.461,1.309,5.182,2.154,7.951,2.611
				c8.161,1.346,15.932-0.851,23.447-3.736c-1.009,0.387-2.041,1.474-2.97,2.054c-1.07,0.668-2.174,1.285-3.307,1.849
				c-2.316,1.152-4.752,2.082-7.261,2.768c-5.385,1.472-10.945,2.243-16.544,2.421c-1.646,0.052-4.478,0.567-5.728-0.782
				c0.103,0.111,0.139,0.56,0.215,0.717C17.588,120.081,18.027,120.452,18.497,120.777z"/>
			<path style="opacity:0.3;fill:#3A3F4F;" d="M49.962,112.594c-1.07,0.668-2.174,1.285-3.307,1.849
				c-2.316,1.152-4.752,2.082-7.261,2.768c-5.385,1.472-10.945,2.243-16.544,2.421c-1.646,0.052-4.478,0.567-5.728-0.782
				c0.103,0.111,0.139,0.56,0.215,0.717c0.251,0.514,0.69,0.885,1.16,1.21c0.056,0.038,0.111,0.076,0.167,0.113
				c6.859,4.547,16.778,3.679,24.533,2.381c7.567-1.267,14.963-3.477,22.125-6.114c1.904-0.701,3.794-1.437,5.665-2.216
				c0.651-0.271,1.538-0.497,2.113-0.908C56.158,126.155,32.83,126.03,32.83,126.03c41.835,6.624,71.819-19.924,71.819-19.924
				c-14.596,18.217-34.382,21.003-34.382,21.003c41.718,0.261,100.341-79.486,114.52-76.087c14.179,3.399-9.543,26.67-9.543,26.67
				s14.117-7.778,17.697-21.781c2.506-15.037-11.824-27.553-33.316-5.175c-26.611,27.709-79.834,56.789-79.834,56.789
				c22.222-14.266,30.452-32.372,30.452-32.372c-28.422,24.781-52.408,34.911-69.089,38.894c4.005-0.733,7.926-2.027,11.779-3.506
				C51.923,110.927,50.891,112.013,49.962,112.594z"/>
		</g>
		<g>
			<path style="fill:#3A3F4F;" d="M193.815,50.494c0,0-4.669,17.912-17.811,27.196c0,0,28.313,0.625,19.654,42.08
				c0,0,13.634,23.031,39.981,3.685c0,0-6.633,3.316-16.582,1.842c0,0,14.187-0.184,19.346-9.028
				c5.159-8.844,6.449-36.112-10.318-56.011C211.318,40.361,193.815,50.494,193.815,50.494z"/>
			<path style="opacity:0.3;fill:#3A3F4F;" d="M195.657,119.771c0,0,13.634,23.031,39.981,3.685c0,0-6.633,3.316-16.582,1.842
				c0,0,14.187-0.184,19.346-9.028c0.352-0.603,0.685-1.295,0.997-2.062c-13.34,11.689-36.999,16.173-35.874-9.418
				c1.525-34.7-27.521-27.099-27.521-27.099S204.317,78.315,195.657,119.771z"/>
		</g>
	</g>
</g>
</svg>
